<?xml version="1.0" encoding="utf-8"?>
<!-- Generator: Adobe Illustrator 24.1.2, SVG Export Plug-In . SVG Version: 6.00 Build 0)  -->
<svg version="1.1" id="contact-book" xmlns="http://www.w3.org/2000/svg" xmlns:xlink="http://www.w3.org/1999/xlink" x="0px"
	 y="0px" viewBox="0 0 120 120" style="enable-background:new 0 0 120 120;" xml:space="preserve">
<path id="contact-book_1_" d="M116.8,41c0.5,0,0.9-0.1,1.4-0.3c0.2-0.1,0.4-0.2,0.6-0.4c0.4-0.3,0.6-0.6,0.9-0.9
	c0.1-0.1,0.1-0.3,0.2-0.4c0.1-0.3,0.2-0.7,0.2-1V22.5c0-0.4-0.1-0.7-0.2-1.1s-0.3-0.7-0.6-1.1c-0.3-0.4-0.8-0.8-1.3-1
	s-1-0.3-1.5-0.3h-7.2V7.8c0-1.1-0.2-2.1-0.6-3s-1-1.8-1.8-2.5c-0.8-0.8-1.7-1.3-2.7-1.7s-2-0.6-3.1-0.6H8C7,0,5.9,0.2,5,0.6
	C4,1,3.2,1.5,2.4,2.3C1.6,3,1,3.9,0.6,4.8S0,6.7,0,7.8v104.4c0,1.1,0.2,2.1,0.6,3s1,1.8,1.8,2.5s1.7,1.3,2.6,1.7
	c1,0.4,2,0.6,3.1,0.6h93c1.1,0,2.2-0.2,3.1-0.6c1-0.4,1.9-0.9,2.7-1.7c0.8-0.8,1.4-1.6,1.8-2.5s0.6-1.9,0.6-3V101h7.5
	c0.5,0,1-0.1,1.4-0.3l0.9-0.6c0.3-0.3,0.6-0.7,0.8-1.2c0-0.1,0-0.2,0.1-0.2c0.1-0.3,0.1-0.6,0.1-0.8V82.4c0-0.4-0.1-0.8-0.2-1.2
	c-0.2-0.5-0.4-0.9-0.8-1.2c-0.4-0.3-0.8-0.6-1.3-0.8c-0.4-0.1-0.8-0.2-1.3-0.2h-7.2v-8h7.5c0.5,0,0.9-0.1,1.4-0.3
	c0.3-0.1,0.6-0.3,0.9-0.6c0.2-0.2,0.5-0.5,0.6-0.8c0.2-0.4,0.3-0.9,0.3-1.3V52.4c0-0.4-0.1-0.8-0.2-1.2c-0.1-0.3-0.3-0.6-0.5-0.9
	c-0.3-0.4-0.8-0.8-1.3-1s-1-0.3-1.5-0.3h-7.2v-8H116.8z M25.8,89.3c0-15.9,4.8-13.7,21.3-17.2c0-1.6,1.5-2.5,0-4.9
	c-0.8-1.3-6.2-8.7-7.3-8.7c-3.8,0-3.9-8.9-0.5-9.7v-6.4c0-15.4,30.9-15.4,30.9,0v6.4c3.4,0.8,3.4,9.7-0.6,9.7
	c-2.9,2.9-5.7,6.3-7.3,8.7c-1.4,2.1,0,3,0,4.9c16.4,3.6,21.1,1.3,21.1,17.2H25.8z M102.1,114.3c-0.2,0-0.3,0.1-0.5,0.1
	s-0.3,0.1-0.5,0.1l0,0c0.2,0,0.4,0,0.5-0.1C101.8,114.4,102,114.3,102.1,114.3s0.2-0.1,0.3-0.2C102.3,114.2,102.2,114.3,102.1,114.3
	z M103.4,112.8c0-0.2,0.1-0.4,0-0.6h0.1C103.5,112.5,103.5,112.7,103.4,112.8z"/>
</svg>
