<?xml version="1.0" encoding="utf-8"?>
<!-- Generator: Adobe Illustrator 24.1.2, SVG Export Plug-In . SVG Version: 6.00 Build 0)  -->
<svg version="1.1" id="about-icon" xmlns="http://www.w3.org/2000/svg" xmlns:xlink="http://www.w3.org/1999/xlink" x="0px" y="0px"
	 viewBox="0 0 120 120" style="enable-background:new 0 0 120 120;" xml:space="preserve">
<style type="text/css">
	.st0{fill-rule:evenodd;clip-rule:evenodd;}
</style>
<path id="about-icon_1_" class="st0" d="M60,0c33.1,0,60,26.9,60,60s-26.9,60-60,60S0,93.1,0,60S26.9,0,60,0L60,0z M77.6,95.9H42.4
	V90H49V53.9h-6.6v-4.7h16.4c4.1,0,8.2-0.5,12.3-1.5V90h6.4L77.6,95.9L77.6,95.9z M62.4,20.6c2.7,0,4.9,0.8,6.4,2.3
	c1.5,1.6,2.3,3.7,2.3,6.4c0,2.8-1.3,5.3-4,7.4c-2.7,2.2-5.8,3.3-9.4,3.3c-2.7,0-4.8-0.7-6.4-2.2c-1.6-1.5-2.4-3.5-2.4-5.9
	c0-3.1,1.3-5.7,4-8C55.5,21.7,58.7,20.6,62.4,20.6L62.4,20.6z"/>
</svg>
