<?xml version="1.0" encoding="utf-8"?><svg version="1.1" id="Layer_1" xmlns="http://www.w3.org/2000/svg" xmlns:xlink="http://www.w3.org/1999/xlink" x="0px" y="0px" width="122.88px" height="122.88px" viewBox="0 0 122.88 122.88" enable-background="new 0 0 122.88 122.88" xml:space="preserve"><g><path fill-rule="evenodd" clip-rule="evenodd" d="M13.001,0h96.878c7.152,0,13.001,5.849,13.001,13.001v96.878 c0,7.152-5.849,13.001-13.001,13.001H13.001C5.849,122.88,0,117.031,0,109.879V13.001C0,5.849,5.849,0,13.001,0L13.001,0z M21.196,33.195c6.529,4.49,13.026,9,18.496,14.824c-3.148,13.872,9.386,24.945,20.829,31.483c4.461,2.551,6.432,4.35,11.411,3.48 l19.623,19.215C54.648,114.594,13.23,62.588,21.196,33.195L21.196,33.195z M76.99,78.052l4.304-4.382 c1.254-1.261,3.304-1.271,4.558-0.048l15.856,15.627c1.264,1.248,1.279,3.291,0.043,4.557l-4.311,4.369 c-1.234,1.271-3.279,1.271-4.55,0.051L77.028,82.599C75.766,81.354,75.749,79.306,76.99,78.052L76.99,78.052z M25.047,24.009 l3.129-3.787c1.333-1.628,3.771-1.871,5.386-0.533l16.232,13.378c1.631,1.34,1.869,3.775,0.533,5.397l-3.125,3.789 c-1.335,1.615-3.764,1.851-5.395,0.52L25.562,29.39C23.945,28.057,23.711,25.619,25.047,24.009L25.047,24.009z"/></g></svg>