<?xml version="1.0" encoding="utf-8"?>
<!-- Generator: Adobe Illustrator 24.1.2, SVG Export Plug-In . SVG Version: 6.00 Build 0)  -->
<svg version="1.1" id="Layer_1" xmlns="http://www.w3.org/2000/svg" xmlns:xlink="http://www.w3.org/1999/xlink" x="0px" y="0px"
	 viewBox="0 0 120 120" style="enable-background:new 0 0 120 120;" xml:space="preserve">
<g>
	<path d="M48.8,0L48.8,0L48.8,0c13.5,0,25.7,5.6,34.5,14.7c8.8,9,14.3,21.6,14.3,35.4h0v0v0h0c0,5.6-0.9,10.9-2.5,15.9
		c-0.3,0.8-0.6,1.6-0.9,2.4v0c-1.4,3.7-3.2,7.1-5.4,10.3l28.4,26.2l0,0l0.2,0.1l0,0c1.6,1.6,2.5,3.7,2.6,5.8c0.1,2.1-0.5,4.3-1.9,6
		l0,0l-0.2,0.2l0,0l-0.1,0.2l0,0c-1.5,1.6-3.6,2.5-5.6,2.7c-2,0.1-4.1-0.5-5.8-2l0,0l-0.2-0.2l0,0L76.9,91c-0.9,0.6-1.7,1.2-2.6,1.8
		c-1.2,0.8-2.5,1.5-3.7,2.1c-6.5,3.3-13.9,5.2-21.8,5.2v0h0v0c-13.5,0-25.7-5.6-34.5-14.7C5.5,76.4,0,63.9,0,50.1h0v0v0h0
		c0-13.8,5.5-26.3,14.3-35.4C23.1,5.6,35.3,0,48.8,0L48.8,0L48.8,0L48.8,0z M48.8,11.2L48.8,11.2L48.8,11.2L48.8,11.2L48.8,11.2
		c-10.5,0-19.9,4.4-26.8,11.4c-6.8,7-11.1,16.7-11.1,27.4h0v0v0h0c0,10.7,4.2,20.4,11.1,27.4c6.8,7,16.3,11.4,26.8,11.4v0h0h0v0
		c10.4,0,19.9-4.4,26.7-11.4c6.8-7,11.1-16.7,11.1-27.4h0v0v0h0c0-10.7-4.2-20.4-11.1-27.4C68.7,15.6,59.3,11.2,48.8,11.2L48.8,11.2
		z"/>
</g>
</svg>
