<?xml version="1.0" encoding="utf-8"?>
<!-- Generator: Adobe Illustrator 24.1.2, SVG Export Plug-In . SVG Version: 6.00 Build 0)  -->
<svg version="1.1" id="shopping-basket" xmlns="http://www.w3.org/2000/svg" xmlns:xlink="http://www.w3.org/1999/xlink" x="0px"
	 y="0px" viewBox="0 0 120 120" style="enable-background:new 0 0 120 120;" xml:space="preserve">
<path id="shopping-basket_1_" d="M114,34.6h-13c-0.3-0.8-0.6-1.4-1-2.2l-19-29C78.5-0.4,73.8-1,70.6,1.9c-3.2,3-3.7,8.7-1.3,12.5
	l13.2,20.2H37.7l13-19.9c2.5-3.9,2-9.5-1.3-12.5c-3.2-3-7.9-2.4-10.4,1.6L20.1,32.7c-0.4,0.6-0.7,1.2-0.9,1.9H6.1
	c-3.4,0-6.1,3.2-6.1,7.3v15.5l0,0c0,4.1,2.7,7.3,6.1,7.3h4.5l4.2,48.9c0.1,1.7,0.7,3.1,1.7,4.5l0.2,0.2c0.9,1.1,2.2,1.7,3.6,1.7
	h81.8c1.4,0,2.7-0.7,3.7-1.9s1.6-2.8,1.6-4.5l2.2-48.6h4.4c1.6,0,3.1-0.8,4.2-2.2s1.8-3.1,1.8-5.2V41.9
	C120,37.8,117.3,34.6,114,34.6z M46.6,73.5v30.5c0,0.6-0.4,1-0.8,1H38c-0.5,0-0.8-0.5-0.8-1V73.5c0-0.6,0.4-1,0.8-1h7.7
	C46.2,72.5,46.6,73,46.6,73.5L46.6,73.5z M64.6,103.8c0,0.6-0.4,1-0.8,1h-7.6c-0.5,0-0.8-0.5-0.8-1V73.5c0-0.6,0.4-1,0.8-1h7.7
	c0.5,0,0.8,0.5,0.8,1L64.6,103.8L64.6,103.8z M82.8,103.8c0,0.6-0.4,1-0.8,1h-7.7c-0.5,0-0.8-0.5-0.8-1l0,0V73.5c0-0.6,0.4-1,0.8-1
	H82c0.5,0,0.8,0.5,0.8,1V103.8z"/>
</svg>
