<?xml version="1.0" encoding="utf-8"?>
<!-- Generator: Adobe Illustrator 24.1.2, SVG Export Plug-In . SVG Version: 6.00 Build 0)  -->
<svg version="1.1" id="Layer_1" xmlns="http://www.w3.org/2000/svg" xmlns:xlink="http://www.w3.org/1999/xlink" x="0px" y="0px"
	 viewBox="0 0 128.1 106.3" style="enable-background:new 0 0 128.1 106.3;" xml:space="preserve">
<path d="M121.7,30.7h-13.9c-0.3-0.7-0.6-1.3-1.1-1.9L86.5,3c-2.7-3.4-7.7-4-11.1-1.4c-3.4,2.7-4,7.7-1.4,11.1l14.1,17.9H40.2
	L54.1,13c2.7-3.4,2.1-8.4-1.4-11.1c-3.4-2.7-8.4-2.1-11.1,1.4L21.5,29c-0.4,0.5-0.7,1.1-1,1.7h-14c-3.6,0-6.5,2.9-6.5,6.5V51
	c0,0,0,0,0,0c0,3.6,2.9,6.5,6.5,6.5h4.8l4.5,43.3c0.1,1.5,0.8,2.8,1.8,3.9l0.2,0.2c1,1,2.4,1.5,3.8,1.5H109c1.5,0,2.9-0.6,4-1.7
	c1.1-1.1,1.7-2.5,1.7-4l2.3-43.1h4.7c1.7,0,3.3-0.7,4.5-1.9c1.2-1.2,1.9-2.8,1.9-4.6V37.2C128.1,33.6,125.2,30.7,121.7,30.7z
	 M49.7,65.2v27c0,0.5-0.4,0.9-0.9,0.9h-8.2c-0.5,0-0.9-0.4-0.9-0.9v-27c0-0.5,0.4-0.9,0.9-0.9h8.2C49.3,64.3,49.7,64.7,49.7,65.2
	C49.7,65.2,49.7,65.2,49.7,65.2z M69,92.1c0,0.5-0.4,0.9-0.9,0.9H60c-0.5,0-0.9-0.4-0.9-0.9v-27c0-0.5,0.4-0.9,0.9-0.9h8.2
	c0.5,0,0.9,0.4,0.9,0.9V92.1z M88.4,92.1c0,0.5-0.4,0.9-0.9,0.9h-8.2c-0.5,0-0.9-0.4-0.9-0.9c0,0,0,0,0,0v-27c0-0.5,0.4-0.9,0.9-0.9
	h8.2c0.5,0,0.9,0.4,0.9,0.9V92.1z"/>
</svg>
