<svg xmlns="http://www.w3.org/2000/svg" xmlns:xlink="http://www.w3.org/1999/xlink" viewBox="0 0 233.74374 233.54037">
  <defs>
    <style>
      .ea71c63a-9706-4fb0-a01a-26a849ff80ab {
        fill: none;
      }

      .abfc1d91-b3e8-4314-a21e-966ae9c078b0 {
        clip-path: url(#a1cab8cb-33a8-4e52-bceb-f8b66d6686f7);
      }

      .b6456dc7-6d2a-48c2-a587-ced979a6de5d {
        fill: #fff;
      }

      .b9e1d813-5a0d-4630-af1a-3c32bd6791b8 {
        fill: #342c9b;
      }

      .f045940e-47d5-4690-a378-2c00b82a0dc7 {
        fill: #f3111a;
      }
    </style>
    <clipPath id="a1cab8cb-33a8-4e52-bceb-f8b66d6686f7">
      <rect class="ea71c63a-9706-4fb0-a01a-26a849ff80ab" width="233.54037" height="233.54037"/>
    </clipPath>
  </defs>
  <g id="b219063d-8f07-4304-8de8-f8f16cc72b39" data-name="Layer 2">
    <g id="b702c01e-0c2e-4bd0-8b54-abd2be526520" data-name="Layer 1">
      <g>
        <g class="abfc1d91-b3e8-4314-a21e-966ae9c078b0">
          <g>
            <path class="b6456dc7-6d2a-48c2-a587-ced979a6de5d" d="M233.54037,157.362v76.17839H0q0-7.75468,0-15.50937c1.232.3724,2.51685,1.16289,3.68325,1.01558a15.225,15.225,0,0,0,4.65687-1.744c4.76166-2.37353,8.411-1.57184,11.54643,2.697,1.16789,1.59,2.23254,3.25571,3.39437,4.85039,5.78967,7.94663,14.44225,5.86224,19.73393.7104,1.89765-1.84748,3.40977-4.08876,5.29058-5.95617a11.71512,11.71512,0,0,1,17.04693.12506c1.48089,1.51968,2.75022,3.24314,4.16866,4.82648,7.15088,7.9822,16.85374,7.52306,23.21081-.98661a21.81452,21.81452,0,0,1,4.80874-5.102c5.06634-3.45768,12.3104-4.961,17.16235,2.24a43.38824,43.38824,0,0,0,4.9351,5.62482c4.544,4.71415,14.6382,6.2743,19.70564-1.34095a47.004,47.004,0,0,1,3.37347-4.30336c5.65169-6.65713,13.97934-6.37845,19.37018.41059a40.24052,40.24052,0,0,0,7.16833,7.22515c3.97612,2.98072,8.46989,2.94494,12.53565.07227a26.88272,26.88272,0,0,0,5.99259-5.821c5.29043-7.1264,18.24988-9.61315,23.77181-1.13672,1.9037,2.92226,5.1578,5.12646,8.14488,7.13945,3.58006,2.41258,7.48674,1.96588,11.23967-.07689a3.58628,3.58628,0,0,0,2.10106-3.599c-.0762-15.81058-.03643-31.6217-.03913-47.43267-.00009-.47935-.0892-.95869-.1561-1.63246-1.3491.91033-2.43676,1.72914-3.602,2.4164-6.24417,3.68278-11.27389,2.75312-15.80341-2.87985-1.3793-1.71531-2.63615-3.54923-4.16038-5.1243a13.36473,13.36473,0,0,0-20.6409,1.59814,33.96563,33.96563,0,0,0-2.09326,3.52334c-3.47424,6.40465-15.09861,9.31364-19.70668,1.18719a27.27324,27.27324,0,0,0-2.7077-3.661c-2.27508-2.78917-4.70453-5.42356-8.36923-6.36681-5.84947-1.50559-10.42728.5347-14.0004,5.19182-2.37567,3.09641-4.93933,5.96669-8.51745,7.74235-5.42509,2.69224-9.48017,1.92115-13.44716-2.59147-1.6505-1.87749-3.44353-3.64984-4.92229-5.65408-3.39711-4.60434-7.96123-5.30481-13.19225-4.47233-4.88161.77686-8.04174,3.78545-10.39119,7.77885-3.92131,6.66512-16.23273,9.8304-21.93763.50229a58.59937,58.59937,0,0,0-3.504-5.05311,9.47627,9.47627,0,0,0-7.76082-4.12182c-4.92288.02236-9.08121,1.65249-11.83839,6.00411a49.79522,49.79522,0,0,1-3.00174,4.56422,8.555,8.555,0,0,1-3.15759,2.83781c-6.22167,2.33323-13.73839,1.30723-17.49-5.255C17.5085,165.09453,10.34928,162.053,0,166.029v-8.667c6.839.04257,13.68052-.00963,20.51538.18,2.33867.0649,2.9616-.67687,2.94153-2.95412-.10244-11.62958-.0148-23.26074-.08433-34.89082-.01083-1.811.53481-2.34409,2.349-2.31249,6.5351.11386,13.07312.06073,19.61.06932,1.88321.00247,3.76643.00037,5.85632.00037.04811,1.071.116,1.88434.11647,2.69768.00631,11.63055.03944,23.26132-.03337,34.89143-.01178,1.88092.55353,2.51343,2.45518,2.48505,6.15556-.09188,12.31542-.10974,18.4694.02983,1.96046.04448,2.432-.58729,2.42872-2.441q-.08423-47.89038-.02709-95.7809c.00223-1.74914-.55038-2.1941-2.2139-2.169-5.92773.08938-11.85751.04358-17.7865.04863-1.02811.00087-2.05622.00012-3.23184.00012,0,1.11122.00136,1.86078-.00022,2.61034-.02033,9.65393-.07563,19.308-.03038,28.96165.00829,1.76966-.51835,2.358-2.34063,2.33637-7.60015-.09033-15.20339-.10837-22.80253.02111-2.1987.03747-2.84948-.6067-2.82451-2.81333.10752-9.50084-.02-19.00427.07707-28.50534.02167-2.12271-.64817-2.71613-2.72739-2.67507-6.15448.12153-12.3131.02565-18.47.04279A18.76005,18.76005,0,0,0,0,57.46337v-5.4739c.911-.01391,1.82193-.0399,2.73289-.04q63.797-.0072,127.594-.00786,51.60675.00818,103.2135.04786v5.01774H211.19051c0,1.56928-.00017,2.47515,0,3.381.0018,9.42533-.04033,18.85106.04268,28.27568.01654,1.87821-.53212,2.4992-2.44469,2.47526-7.67551-.09607-15.35288-.04149-23.02956-.0521-.73529-.001-1.47049-.06794-2.46893-.11728,0-1.11156.00035-2.00689,0-2.90223-.00406-9.42532-.07333-18.8514.03663-28.27539.02522-2.16109-.69988-2.68868-2.73153-2.64593-5.69787.11987-11.39982.03509-17.10011.0527-3.49145.01078-3.49066.02868-3.49134,3.422q-.00457,22.4612-.01014,44.92237-.00726,24.1714-.01663,48.34283c-.00093,3.699.00354,3.67609,3.76013,3.65243,5.32021-.0335,10.6407-.01823,15.961-.04439,4.14512-.02038,3.5799.30012,3.5889-3.48142.027-11.32556.00628-22.65125.01245-33.97688.00043-.8.068-1.6.11275-2.58359,1.09475,0,1.9222,0,2.74964,0,6.91658-.00014,13.83341.03488,20.74967-.01208,5.15386-.035,4.23813-.19791,4.25831,4.22236.051,11.17338.02576,22.34709.03312,33.52068.00074,1.1317-.22283,2.33908,1.59776,2.3179C219.71342,157.42071,226.627,157.40307,233.54037,157.362ZM89.32093,57.19551c0,4.04146,0,7.82377,0,11.60608q.00041,42.97838-.00338,85.95675c-.00028,1.46522-.23812,2.80008,2.08277,2.79214q28.042-.09583,56.08454.02175c1.84885.00625,2.32733-.6962,2.313-2.416q-.0882-10.60122.02848-21.20346c.02394-1.89313-.61219-2.44029-2.49618-2.42421-10.25877.08758-20.51873.06171-30.77818.038-4.38312-.01014-3.96673.39-3.96855-3.8652q-.01458-33.97217.01927-67.94425c.00466-1.96047-.4914-2.70672-2.55209-2.607-3.33607.16151-6.68561.045-10.02946.04536C96.54282,57.19579,93.06445,57.19551,89.32093,57.19551Z"/>
            <path class="b9e1d813-5a0d-4630-af1a-3c32bd6791b8" d="M0,166.029c10.38047-3.976,17.56127-.93445,22.66973,7.97415,3.763,6.56219,11.30233,7.58819,17.54275,5.255a8.57209,8.57209,0,0,0,3.16711-2.83781,49.78051,49.78051,0,0,0,3.01078-4.56422c2.76549-4.35162,6.93636-5.98175,11.87407-6.00411a9.51276,9.51276,0,0,1,7.78421,4.12182,58.59679,58.59679,0,0,1,3.51453,5.05311c5.72209,9.32811,18.07062,6.16283,22.00374-.50229,2.35654-3.9934,5.52619-7.002,10.42251-7.77885,5.24679-.83248,9.82466-.132,13.232,4.47233,1.48321,2.00424,3.28165,3.77659,4.93713,5.65408,3.97895,4.51262,8.04624,5.28371,13.48769,2.59147,3.5889-1.77566,6.16029-4.64594,8.54312-7.74235,3.58389-4.65712,8.17549-6.69741,14.04259-5.19182,3.67575.94325,6.11251,3.57764,8.39446,6.36681a27.2784,27.2784,0,0,1,2.71585,3.661c4.622,8.12645,16.28137,5.21746,19.76608-1.18719a33.94476,33.94476,0,0,1,2.09957-3.52334,13.43,13.43,0,0,1,20.7031-1.59814c1.52883,1.57507,2.78947,3.409,4.17292,5.1243,4.54318,5.633,9.58806,6.56263,15.851,2.87985,1.16875-.68726,2.25969-1.50607,3.61285-2.4164.0671.67377.15649,1.15311.15657,1.63246.00271,15.811-.03718,31.62209.03925,47.43267a3.58481,3.58481,0,0,1-2.10739,3.599c-3.76424,2.04277-7.6827,2.48947-11.27354.07689-2.99609-2.013-6.26-4.21719-8.16943-7.13945-5.53858-8.47643-18.53709-5.98968-23.84346,1.13672a26.927,26.927,0,0,1-6.01065,5.821c-4.078,2.87267-8.58533,2.90845-12.57343-.07227a40.30039,40.30039,0,0,1-7.18994-7.22515c-5.40708-6.789-13.75983-7.06772-19.42856-.41059a47.02425,47.02425,0,0,0-3.38363,4.30336c-5.08272,7.61525-15.20738,6.0551-19.765,1.34095a43.429,43.429,0,0,1-4.95-5.62482c-4.86657-7.201-12.13246-5.69764-17.21407-2.24a21.84177,21.84177,0,0,0-4.82323,5.102c-6.37624,8.50967-16.10834,8.96881-23.28077.98661-1.42271-1.58334-2.69588-3.3068-4.18122-4.82648a11.77474,11.77474,0,0,0-17.09831-.12506c-1.88648,1.86741-3.40316,4.10869-5.30652,5.95617-5.30764,5.15184-13.98629,7.23623-19.79341-.7104-1.16533-1.59468-2.2332-3.26037-3.4046-4.85039-3.14493-4.26881-6.80523-5.0705-11.58124-2.697a15.29958,15.29958,0,0,1-4.6709,1.744C2.52444,219.19389,1.23574,218.4034,0,218.031Z"/>
          </g>
        </g>
        <rect class="b9e1d813-5a0d-4630-af1a-3c32bd6791b8" y="38.30473" width="233.54037" height="13.68468"/>
        <rect class="b9e1d813-5a0d-4630-af1a-3c32bd6791b8" width="233.54037" height="32.66745"/>
        <rect class="b6456dc7-6d2a-48c2-a587-ced979a6de5d" y="32.66745" width="233.54037" height="5.63728"/>
        <g>
          <polygon class="f045940e-47d5-4690-a378-2c00b82a0dc7" points="51.193 57.187 51.193 91.126 23.431 91.126 23.431 57.187 0 57.187 0 157.542 23.431 157.542 23.431 117.459 51.193 117.459 51.193 157.542 74.624 157.542 74.624 57.187 51.193 57.187"/>
          <polygon class="f045940e-47d5-4690-a378-2c00b82a0dc7" points="210.109 57.187 210.109 91.126 182.347 91.126 182.347 57.187 158.916 57.187 158.916 157.542 182.347 157.542 182.347 117.459 210.109 117.459 210.109 157.542 233.54 157.542 233.54 57.187 210.109 57.187"/>
          <polygon class="f045940e-47d5-4690-a378-2c00b82a0dc7" points="112.742 131.589 112.742 57.187 89.311 57.187 89.311 157.542 112.742 157.542 149.809 157.542 149.809 131.589 112.742 131.589"/>
        </g>
      </g>
    </g>
  </g>
</svg>
