<svg xmlns="http://www.w3.org/2000/svg" xmlns:xlink="http://www.w3.org/1999/xlink" viewBox="0 0 233.74374 230.55452">
  <defs>
    <style>
      .b4efb811-5c7f-40de-8de4-597fef10c9a5 {
        fill: none;
      }

      .a5e0e7bd-7885-4c4f-92e7-79c7d03c513a {
        clip-path: url(#b2a40b55-eca6-4a77-a1f2-5ca83149fec8);
      }

      .f5b25b7f-ba14-4729-a85a-9bc82aa68282 {
        fill: #342c9b;
      }

      .b3cab868-425d-49df-a925-4f390c37b666 {
        fill: #f3111a;
      }
    </style>
    <clipPath id="b2a40b55-eca6-4a77-a1f2-5ca83149fec8">
      <rect class="b4efb811-5c7f-40de-8de4-597fef10c9a5" width="233.54037" height="233.54037"/>
    </clipPath>
  </defs>
  <g id="bc00a4b9-a326-434f-9fe4-3c582518d302" data-name="Layer 2">
    <g id="ae9a0230-fcaf-4612-bf53-eac077cfac1b" data-name="Layer 1">
      <g>
        <g class="a5e0e7bd-7885-4c4f-92e7-79c7d03c513a">
          <path class="f5b25b7f-ba14-4729-a85a-9bc82aa68282" d="M0,166.029c10.38047-3.976,17.56127-.93445,22.66973,7.97415,3.763,6.56219,11.30233,7.58819,17.54275,5.255a8.57209,8.57209,0,0,0,3.16711-2.83781,49.78051,49.78051,0,0,0,3.01078-4.56422c2.76549-4.35162,6.93636-5.98175,11.87407-6.00411a9.51276,9.51276,0,0,1,7.78421,4.12182,58.59679,58.59679,0,0,1,3.51453,5.05311c5.72209,9.32811,18.07062,6.16283,22.00374-.50229,2.35654-3.9934,5.52619-7.002,10.42251-7.77885,5.24679-.83248,9.82466-.132,13.232,4.47233,1.48321,2.00424,3.28165,3.77659,4.93713,5.65408,3.97895,4.51262,8.04624,5.28371,13.48769,2.59147,3.5889-1.77566,6.16029-4.64594,8.54312-7.74235,3.58389-4.65712,8.17549-6.69741,14.04259-5.19182,3.67575.94325,6.11251,3.57764,8.39446,6.36681a27.2784,27.2784,0,0,1,2.71585,3.661c4.622,8.12645,16.28137,5.21746,19.76608-1.18719a33.94476,33.94476,0,0,1,2.09957-3.52334,13.43,13.43,0,0,1,20.7031-1.59814c1.52883,1.57507,2.78947,3.409,4.17292,5.1243,4.54318,5.633,9.58806,6.56263,15.851,2.87985,1.16875-.68726,2.25969-1.50607,3.61285-2.4164.0671.67377.15649,1.15311.15657,1.63246.00271,15.811-.03718,31.62209.03925,47.43267a3.58481,3.58481,0,0,1-2.10739,3.599c-3.76424,2.04277-7.6827,2.48947-11.27354.07689-2.99609-2.013-6.26-4.21719-8.16943-7.13945-5.53858-8.47643-18.53709-5.98968-23.84346,1.13672a26.927,26.927,0,0,1-6.01065,5.821c-4.078,2.87267-8.58533,2.90845-12.57343-.07227a40.30039,40.30039,0,0,1-7.18994-7.22515c-5.40708-6.789-13.75983-7.06772-19.42856-.41059a47.02425,47.02425,0,0,0-3.38363,4.30336c-5.08272,7.61525-15.20738,6.0551-19.765,1.34095a43.429,43.429,0,0,1-4.95-5.62482c-4.86657-7.201-12.13246-5.69764-17.21407-2.24a21.84177,21.84177,0,0,0-4.82323,5.102c-6.37624,8.50967-16.10834,8.96881-23.28077.98661-1.42271-1.58334-2.69588-3.3068-4.18122-4.82648a11.77474,11.77474,0,0,0-17.09831-.12506c-1.88648,1.86741-3.40316,4.10869-5.30652,5.95617-5.30764,5.15184-13.98629,7.23623-19.79341-.7104-1.16533-1.59468-2.2332-3.26037-3.4046-4.85039-3.14493-4.26881-6.80523-5.0705-11.58124-2.697a15.29958,15.29958,0,0,1-4.6709,1.744C2.52444,219.19389,1.23574,218.4034,0,218.031Z"/>
        </g>
        <rect class="f5b25b7f-ba14-4729-a85a-9bc82aa68282" y="38.30473" width="233.54037" height="13.68468"/>
        <rect class="f5b25b7f-ba14-4729-a85a-9bc82aa68282" width="233.54037" height="32.66745"/>
        <g>
          <polygon class="b3cab868-425d-49df-a925-4f390c37b666" points="51.193 57.187 51.193 91.126 23.431 91.126 23.431 57.187 0 57.187 0 157.542 23.431 157.542 23.431 117.459 51.193 117.459 51.193 157.542 74.624 157.542 74.624 57.187 51.193 57.187"/>
          <polygon class="b3cab868-425d-49df-a925-4f390c37b666" points="210.109 57.187 210.109 91.126 182.347 91.126 182.347 57.187 158.916 57.187 158.916 157.542 182.347 157.542 182.347 117.459 210.109 117.459 210.109 157.542 233.54 157.542 233.54 57.187 210.109 57.187"/>
          <polygon class="b3cab868-425d-49df-a925-4f390c37b666" points="112.742 131.589 112.742 57.187 89.311 57.187 89.311 157.542 112.742 157.542 149.809 157.542 149.809 131.589 112.742 131.589"/>
        </g>
      </g>
    </g>
  </g>
</svg>
