<svg xmlns="http://www.w3.org/2000/svg" xmlns:xlink="http://www.w3.org/1999/xlink" viewBox="0 0 268.57143 268.57143">
  <defs>
    <style>
      .a321c9d9-6301-428d-a66b-41a85a43aa19 {
        fill: none;
      }

      .b4134b96-ee04-43c2-954b-ddcf813a41a0 {
        fill: #fff;
      }

      .ac8becf2-3dd9-4878-8b7c-70ca23e266e7 {
        clip-path: url(#b422b274-ce28-4e87-9ad2-c2be35e88bc9);
      }

      .a90bc1c9-3b23-458f-ba1f-f92f60cfdc31 {
        fill: #342c9b;
      }

      .b9634c1f-5b4d-4f4e-bcc2-c08702db32c4 {
        fill: #f3111a;
      }
    </style>
    <clipPath id="b422b274-ce28-4e87-9ad2-c2be35e88bc9">
      <rect class="a321c9d9-6301-428d-a66b-41a85a43aa19" x="17.51553" y="17.51553" width="233.54037" height="233.54037"/>
    </clipPath>
  </defs>
  <g id="bc954bda-c0f4-4631-896e-136fa1663fe3" data-name="Layer 2">
    <g id="f7e70252-efcb-402e-a1ff-6829da12279a" data-name="Layer 1">
      <g>
        <rect class="b4134b96-ee04-43c2-954b-ddcf813a41a0" width="268.57143" height="268.57143"/>
        <g>
          <g class="ac8becf2-3dd9-4878-8b7c-70ca23e266e7">
            <g>
              <path class="b4134b96-ee04-43c2-954b-ddcf813a41a0" d="M251.0559,174.87751V251.0559H17.51554q0-7.7547,0-15.50937c1.232.37239,2.51685,1.16289,3.68325,1.01558a15.22513,15.22513,0,0,0,4.65687-1.744c4.76165-2.37353,8.41095-1.57185,11.54643,2.697,1.16788,1.59,2.23254,3.25571,3.39437,4.8504,5.78967,7.94663,14.44225,5.86223,19.73393.7104,1.89764-1.84748,3.40977-4.08876,5.29058-5.95617a11.71511,11.71511,0,0,1,17.04693.12506c1.48088,1.51968,2.75022,3.24314,4.16866,4.82648,7.15088,7.98219,16.85373,7.52306,23.21081-.98661a21.81477,21.81477,0,0,1,4.80874-5.102c5.06634-3.45767,12.3104-4.961,17.16235,2.24a43.38832,43.38832,0,0,0,4.9351,5.62483c4.544,4.71415,14.6382,6.2743,19.70564-1.34095a47.00541,47.00541,0,0,1,3.37346-4.30337c5.6517-6.65712,13.97935-6.37844,19.37019.4106a40.24084,40.24084,0,0,0,7.16833,7.22515c3.97612,2.98072,8.46989,2.94494,12.53565.07226a26.88267,26.88267,0,0,0,5.99259-5.821c5.29042-7.1264,18.24988-9.61315,23.77181-1.13672,1.9037,2.92226,5.1578,5.12646,8.14488,7.13945,3.58005,2.41258,7.48674,1.96588,11.23967-.0769a3.58625,3.58625,0,0,0,2.101-3.599c-.07619-15.81058-.03643-31.6217-.03913-47.43267-.00008-.47935-.0892-.95869-.1561-1.63246-1.34909.91033-2.43675,1.72914-3.602,2.4164-6.24416,3.68278-11.27388,2.75312-15.80341-2.87985-1.3793-1.71531-2.63614-3.54923-4.16038-5.1243a13.36472,13.36472,0,0,0-20.64089,1.59814,33.96444,33.96444,0,0,0-2.09326,3.52333c-3.47425,6.40466-15.09861,9.31364-19.70669,1.1872a27.2723,27.2723,0,0,0-2.70769-3.661c-2.27509-2.78917-4.70453-5.42356-8.36923-6.36681-5.84948-1.5056-10.42728.5347-14.0004,5.19182-2.37567,3.09641-4.93933,5.96669-8.51745,7.74235-5.42509,2.69223-9.48017,1.92115-13.44716-2.59148-1.6505-1.87749-3.44354-3.64983-4.92229-5.65407-3.39711-4.60434-7.96123-5.30481-13.19225-4.47233-4.88161.77686-8.04174,3.78545-10.39119,7.77885-3.92131,6.66512-16.23274,9.83039-21.93763.50229a58.6016,58.6016,0,0,0-3.504-5.05311,9.47627,9.47627,0,0,0-7.76082-4.12182c-4.92288.02236-9.08122,1.65249-11.83839,6.00411a49.79379,49.79379,0,0,1-3.00175,4.56421,8.5549,8.5549,0,0,1-3.15758,2.83782c-6.22167,2.33323-13.73839,1.30723-17.49-5.255-5.09311-8.9086-12.25233-11.95018-22.60161-7.97415v-8.667c6.83894.04257,13.68052-.00964,20.51538.18,2.33867.0649,2.96159-.67687,2.94153-2.95413-.10245-11.62958-.01481-23.26073-.08434-34.89081-.01082-1.811.53481-2.34409,2.349-2.31249,6.5351.11386,13.07312.06073,19.61.06931,1.88321.00248,3.76643.00038,5.85632.00038.04811,1.071.116,1.88434.11647,2.69768.00631,11.63055.03943,23.26132-.03337,34.89142-.01178,1.88093.55352,2.51344,2.45518,2.48506,6.15556-.09188,12.31542-.10974,18.4694.02983,1.96046.04447,2.432-.58729,2.42872-2.441q-.08422-47.89038-.02709-95.7809c.00223-1.74915-.55038-2.1941-2.2139-2.169-5.92774.08938-11.85751.04358-17.78651.04863-1.0281.00087-2.05621.00012-3.23184.00012,0,1.11121.00137,1.86078-.00021,2.61034C68.86,86.9959,68.80471,96.65,68.85,106.30362c.00829,1.76966-.51835,2.358-2.34063,2.33637-7.60015-.09033-15.20339-.10837-22.80253.02111-2.1987.03746-2.84949-.6067-2.82451-2.81333.10751-9.50084-.02-19.00428.07706-28.50534.02168-2.12271-.64816-2.71613-2.72738-2.67507-6.15449.12153-12.3131.02565-18.47.04279a18.75777,18.75777,0,0,0-2.24642.26875V69.505c.911-.01391,1.82193-.0399,2.73289-.04q63.797-.0072,127.594-.00786,51.60677.00818,103.21351.04786v5.01774H228.706c0,1.56928-.00017,2.47514,0,3.381.0018,9.42533-.04033,18.85106.04268,28.27568.01654,1.87821-.53212,2.4992-2.44469,2.47526-7.67551-.09607-15.35289-.0415-23.02957-.0521-.73528-.001-1.47049-.06794-2.46892-.11728,0-1.11156.00035-2.00689,0-2.90223-.00406-9.42532-.07333-18.8514.03662-28.27539.02523-2.16109-.69987-2.68868-2.73152-2.64593-5.69787.11987-11.39982.03509-17.10011.0527-3.49145.01078-3.49066.02867-3.49134,3.422q-.00458,22.4612-.01015,44.92237-.00724,24.1714-.01662,48.34282c-.00093,3.69905.00354,3.67609,3.76013,3.65244,5.32021-.03351,10.64069-.01823,15.961-.04439,4.14512-.02038,3.5799.30012,3.5889-3.48142.027-11.32557.00628-22.65125.01245-33.97689.00043-.8.068-1.6.11275-2.58358,1.09474,0,1.9222,0,2.74963,0,6.91659-.00014,13.83342.03487,20.74968-.01208,5.15386-.035,4.23813-.19791,4.25831,4.22236.051,11.17338.02575,22.34709.03312,33.52068.00073,1.13169-.22284,2.33908,1.59776,2.3179C237.229,174.93624,244.14257,174.9186,251.0559,174.87751ZM106.83646,74.711c0,4.04145,0,7.82377,0,11.60608q.00041,42.97837-.00338,85.95675c-.00028,1.46522-.23812,2.80007,2.08277,2.79214q28.042-.09585,56.08454.02174c1.84885.00625,2.32732-.69619,2.313-2.416q-.0882-10.60122.02848-21.20347c.02394-1.89312-.61219-2.44028-2.49618-2.4242-10.25877.08758-20.51873.06171-30.77818.038-4.38312-.01015-3.96673.39005-3.96855-3.8652q-.01459-33.97217.01927-67.94425c.00466-1.96048-.4914-2.70673-2.5521-2.607-3.33606.1615-6.6856.045-10.02945.04536C114.05835,74.71132,110.58,74.711,106.83646,74.711Z"/>
              <path class="a90bc1c9-3b23-458f-ba1f-f92f60cfdc31" d="M17.51553,183.54451c10.38047-3.976,17.56127-.93445,22.66973,7.97415,3.763,6.56219,11.30233,7.58819,17.54275,5.255a8.57209,8.57209,0,0,0,3.1671-2.83782,49.777,49.777,0,0,0,3.01079-4.56421c2.76549-4.35162,6.93636-5.98175,11.87407-6.00411a9.51278,9.51278,0,0,1,7.78421,4.12182,58.59679,58.59679,0,0,1,3.51453,5.05311c5.72208,9.3281,18.07062,6.16283,22.00374-.50229,2.35653-3.9934,5.52618-7.002,10.42251-7.77885,5.24679-.83248,9.82466-.132,13.232,4.47233,1.48321,2.00424,3.28165,3.77658,4.93713,5.65407,3.97894,4.51263,8.04624,5.28371,13.48768,2.59148,3.58891-1.77566,6.16029-4.64594,8.54313-7.74235,3.58389-4.65712,8.17549-6.69742,14.04259-5.19182,3.67574.94325,6.11251,3.57764,8.39445,6.36681a27.27847,27.27847,0,0,1,2.71586,3.661c4.622,8.12644,16.28136,5.21746,19.76608-1.1872a33.9418,33.9418,0,0,1,2.09957-3.52333,13.43,13.43,0,0,1,20.7031-1.59814c1.52883,1.57507,2.78946,3.409,4.17292,5.1243,4.54318,5.633,9.58806,6.56263,15.851,2.87985,1.16875-.68726,2.25969-1.50607,3.61285-2.4164.0671.67377.15648,1.15311.15657,1.63246.00271,15.811-.03718,31.62209.03925,47.43267a3.5848,3.5848,0,0,1-2.10739,3.599c-3.76424,2.04278-7.6827,2.48948-11.27355.0769-2.99608-2.013-6.26-4.21719-8.16942-7.13945-5.53858-8.47643-18.53709-5.98968-23.84346,1.13672a26.92675,26.92675,0,0,1-6.01065,5.821c-4.078,2.87268-8.58533,2.90846-12.57343-.07226a40.30039,40.30039,0,0,1-7.18994-7.22515c-5.40708-6.789-13.75983-7.06772-19.42856-.4106a47.02575,47.02575,0,0,0-3.38363,4.30337c-5.08272,7.61525-15.20738,6.0551-19.765,1.34095a43.42912,43.42912,0,0,1-4.95-5.62483c-4.86657-7.201-12.13246-5.69763-17.21408-2.24a21.84222,21.84222,0,0,0-4.82323,5.102c-6.37623,8.50967-16.10833,8.9688-23.28076.98661-1.42271-1.58334-2.69588-3.3068-4.18122-4.82648a11.77473,11.77473,0,0,0-17.09831-.12506c-1.88648,1.86741-3.40316,4.10869-5.30653,5.95617-5.30763,5.15183-13.98629,7.23623-19.7934-.7104-1.16533-1.59469-2.2332-3.26037-3.40461-4.8504-3.14492-4.26881-6.80522-5.07049-11.58123-2.697a15.29958,15.29958,0,0,1-4.6709,1.744c-1.16991.14731-2.45862-.64319-3.69435-1.01558Z"/>
            </g>
          </g>
          <rect class="a90bc1c9-3b23-458f-ba1f-f92f60cfdc31" x="17.51553" y="55.82026" width="233.54037" height="13.68468"/>
          <rect class="a90bc1c9-3b23-458f-ba1f-f92f60cfdc31" x="17.51553" y="17.51553" width="233.54037" height="32.66745"/>
          <rect class="b4134b96-ee04-43c2-954b-ddcf813a41a0" x="17.51553" y="50.18298" width="233.54037" height="5.63728"/>
          <g>
            <polygon class="b9634c1f-5b4d-4f4e-bcc2-c08702db32c4" points="68.709 74.703 68.709 108.641 40.946 108.641 40.946 74.703 17.516 74.703 17.516 175.057 40.946 175.057 40.946 134.974 68.709 134.974 68.709 175.057 92.14 175.057 92.14 74.703 68.709 74.703"/>
            <polygon class="b9634c1f-5b4d-4f4e-bcc2-c08702db32c4" points="227.625 74.703 227.625 108.641 199.862 108.641 199.862 74.703 176.432 74.703 176.432 175.057 199.862 175.057 199.862 134.974 227.625 134.974 227.625 175.057 251.056 175.057 251.056 74.703 227.625 74.703"/>
            <polygon class="b9634c1f-5b4d-4f4e-bcc2-c08702db32c4" points="130.257 149.105 130.257 74.703 106.826 74.703 106.826 175.057 130.257 175.057 167.324 175.057 167.324 149.105 130.257 149.105"/>
          </g>
        </g>
      </g>
    </g>
  </g>
</svg>
