<?xml version="1.0" encoding="utf-8"?>
<!-- Generator: Adobe Illustrator 24.1.2, SVG Export Plug-In . SVG Version: 6.00 Build 0)  -->
<svg version="1.1" id="Layer_1" xmlns="http://www.w3.org/2000/svg" xmlns:xlink="http://www.w3.org/1999/xlink" x="0px" y="0px"
	 viewBox="0 0 233.7 100.4" style="enable-background:new 0 0 233.7 100.4;" xml:space="preserve">
<style type="text/css">
	.st0{fill:#F3111A;}
</style>
<g id="bc00a4b9-a326-434f-9fe4-3c582518d302">
	<g id="ae9a0230-fcaf-4612-bf53-eac077cfac1b">
		<g>
			<g>
				<polygon class="st0" points="51.2,0 51.2,33.9 23.4,33.9 23.4,0 0,0 0,100.4 23.4,100.4 23.4,60.3 51.2,60.3 51.2,100.4 
					74.6,100.4 74.6,0 				"/>
				<polygon class="st0" points="210.1,0 210.1,33.9 182.3,33.9 182.3,0 158.9,0 158.9,100.4 182.3,100.4 182.3,60.3 210.1,60.3 
					210.1,100.4 233.5,100.4 233.5,0 				"/>
				<polygon class="st0" points="112.7,74.4 112.7,0 89.3,0 89.3,100.4 112.7,100.4 149.8,100.4 149.8,74.4 				"/>
			</g>
		</g>
	</g>
</g>
</svg>
