<svg xmlns="http://www.w3.org/2000/svg" viewBox="0 0 450 300">
  <defs>
    <style>
      .f68571fb-0eed-4ac6-91f1-06ffab3a8b1a {
        fill: gray;
      }

      .acffc50f-2b55-4e26-8de9-0049832f8d69 {
        fill: #d2d2d2;
      }

      .e6c2e92b-92ce-4d13-901e-7c869274f831 {
        fill: #f2f2f2;
      }

      .e3b35702-187a-4277-88e9-5e4b25aaf976 {
        fill: #d3d3d3;
      }
    </style>
  </defs>
  <g id="bbb6bb8b-a674-4743-bbe0-5e06a81b919a" data-name="Layer 2">
    <g id="e54b59e8-383a-4682-a250-ac6d99158372" data-name="Layer 1">
      <rect id="b2699558-896c-4af4-a1d7-678df1d84f6f" data-name="Rectangle 12" class="f68571fb-0eed-4ac6-91f1-06ffab3a8b1a" width="450" height="300"/>
      <g id="bed9281f-4208-4734-a730-07f69d85dfea" data-name="Group 22">
        <path id="f7f7ed38-ee73-4acb-916a-83b57d646cc0" data-name="Path 11" class="acffc50f-2b55-4e26-8de9-0049832f8d69" d="M161.003,149.74194q0-29.46294.005-58.928c0-4.52.255-4.792,4.637-4.793q59.121-.018,118.242,0c4.745,0,5.1.37194,5.106,5.2q.015,58.927,0,117.85705c0,4.68506-.217,4.9-4.9,4.9q-59.121.01207-118.242,0c-4.642,0-4.846-.21595-4.848-4.949Q160.992,179.38794,161.003,149.74194Z"/>
        <path id="b0ca8533-7977-4d59-b859-a9d808749607" data-name="Path 12" class="e6c2e92b-92ce-4d13-901e-7c869274f831" d="M284.681,150.35193q0,27.6469-.007,55.293c0,4.446-.256,4.7-4.74,4.7q-54.944.01794-109.886,0c-4.464,0-4.717-.254-4.718-4.72q-.018-55.29291,0-110.587c0-4.444.261-4.7,4.742-4.7q54.943-.01611,109.887,0c4.466,0,4.71.24695,4.714,4.72Q284.699,122.705,284.681,150.35193Z"/>
        <path id="b94c0a4a-f0f9-4f6b-916a-b85ac201328c" data-name="Path 13" class="acffc50f-2b55-4e26-8de9-0049832f8d69" d="M216.7,205.30493q-20.951,0-41.9-.007c-4.716-.00695-5.178-.416-5.062-5.222.108-4.442.466-8.87805.737-13.316a7.20588,7.20588,0,0,1,2.53-4.645c9.017-9.01,17.984-18.07,27.06-27.02,5.329-5.255,8.554-5.2,13.8.031q20.2,20.148,40.338,40.36695c2.371,2.382,4.559,4.948,6.825,7.436.455.5,1.343.87195.948,1.724-.357.77-1.238.621-1.932.62305q-9.391.03588-18.783.027Q228.981,205.30817,216.7,205.30493Z"/>
        <path id="b932319f-bf99-424f-bfd7-1bf664b89fcc" data-name="Path 14" class="acffc50f-2b55-4e26-8de9-0049832f8d69" d="M279.59,195.67993c0,2.167.031,3.852-.01,5.536-.035,1.428.138,3.04-1.545,3.721a4.071,4.071,0,0,1-4.609-1.145c-2.757-2.686-5.534-5.35095-8.279-8.04895-9.849-9.68506-19.658-19.41-29.545-29.055-3.841-3.74695-3.928-4.15406-.113-7.99305a28.23206,28.23206,0,0,1,2.109-1.97c4.458-3.648,6.1-3.92395,10.261.083,10.225,9.848,20.192,19.96594,30.213,30.024C280.747,189.517,279.119,193.043,279.59,195.67993Z"/>
        <path id="e29ca833-1f99-4f1f-ad04-97a8039028d0" data-name="Path 15" class="e3b35702-187a-4277-88e9-5e4b25aaf976" d="M243.432,118.308c.058-7.77295,5.422-12.894,13.427-12.817,7.89.076,13.482,5.932,13.34,13.97094a13.051,13.051,0,0,1-13.29981,12.79737l-.10019-.00232C248.839,132.126,243.371,126.419,243.432,118.308Z"/>
      </g>
    </g>
  </g>
</svg>
