<?xml version="1.0" encoding="utf-8"?>
<!-- Generator: Adobe Illustrator 24.1.2, SVG Export Plug-In . SVG Version: 6.00 Build 0)  -->
<svg version="1.1" id="Layer_1" xmlns="http://www.w3.org/2000/svg" xmlns:xlink="http://www.w3.org/1999/xlink" x="0px" y="0px"
	 viewBox="0 0 50 50" style="enable-background:new 0 0 50 50;" xml:space="preserve">
<style type="text/css">
	.st0{clip-path:url(#SVGID_2_);}
	.st1{fill:#FFFFFF;}
</style>
<g id="a155fa8f-ee35-4eab-bd7a-a40ac940acce">
	<g id="bcfa9e97-a898-4fff-92d4-bf0263c30f74">
		<g>
			<defs>
				<rect id="SVGID_1_" width="50" height="50"/>
			</defs>
			<clipPath id="SVGID_2_">
				<use xlink:href="#SVGID_1_"  style="overflow:visible;"/>
			</clipPath>
			<g class="st0">
				<path id="ebec2253-02a9-44ba-ac21-5f8ba8d7507a" class="st1" d="M34,21.1c1.4-0.4,2.9-0.3,4.3,0.1c1,0.3,2.1,0.4,3.2,0.4
					c1.6,0,3.1-0.5,4.4-1.3c2.3-1.4,3.8-3.8,4.1-6.5c0.3-3.2-0.9-6.4-3.2-8.6c-2.4-2.4-5.7-3.8-9.2-3.8c-3.5,0-6.9,1.4-9.4,3.9
					c-3.3,3.5-5.2,8-5.3,12.8c-0.8-0.5-1.4-1.3-1.8-2.2c-0.4-1.4-0.4-2.9,0.1-4.3c0.5-2,1-4.6-0.9-7.6C18.7,1.5,15.8,0,12.7,0
					C9.9,0,7.2,1.2,5.3,3.3c-5.1,5.2-5,13.5,0.1,18.6c3.5,3.3,8,5.1,12.8,5.3c-0.5,0.8-1.3,1.4-2.2,1.7c-1.4,0.4-2.9,0.3-4.3-0.1
					c-1-0.3-2.1-0.4-3.2-0.4c-1.6,0-3.1,0.5-4.4,1.3c-2.3,1.4-3.8,3.8-4.1,6.5c-0.3,3.2,0.9,6.4,3.2,8.6c2.4,2.4,5.7,3.8,9.2,3.8
					c3.5,0,6.9-1.4,9.4-3.9c3.3-3.5,5.2-8,5.3-12.8c0.8,0.5,1.4,1.3,1.8,2.2c0.4,1.4,0.4,2.9-0.1,4.3c-0.5,2-1,4.6,0.9,7.6
					c1.6,2.6,4.5,4.2,7.6,4.1c2.8-0.1,5.5-1.3,7.5-3.3c5.1-5.2,5-13.5-0.1-18.6c-3.5-3.3-8-5.1-12.8-5.3C32.3,22,33.1,21.4,34,21.1z
					 M27.1,27.1c-1.2,1.1-3.1,1.1-4.3,0c-1.2-1.2-1.2-3.1,0-4.3c1.2-1.2,3.1-1.2,4.3,0C28.3,24,28.3,26,27.1,27.1L27.1,27.1z"/>
			</g>
		</g>
	</g>
</g>
</svg>
