<?xml version="1.0" encoding="utf-8"?>
<!-- Generator: Adobe Illustrator 24.1.2, SVG Export Plug-In . SVG Version: 6.00 Build 0)  -->
<svg version="1.1" id="Layer_1" xmlns="http://www.w3.org/2000/svg" xmlns:xlink="http://www.w3.org/1999/xlink" x="0px" y="0px"
	 viewBox="0 0 50 50" style="enable-background:new 0 0 50 50;" xml:space="preserve">
<style type="text/css">
	.st0{clip-path:url(#SVGID_2_);fill:#FFFFFF;}
</style>
<g>
	<defs>
		<rect id="SVGID_1_" width="50" height="50"/>
	</defs>
	<clipPath id="SVGID_2_">
		<use xlink:href="#SVGID_1_"  style="overflow:visible;"/>
	</clipPath>
	<path class="st0" d="M32.5,13.5l5.8-5.8c-9.5-8.4-24.1-7.5-32.5,2c-8.4,9.5-7.5,24.1,2,32.5s24.1,7.5,32.5-2
		c3.4-3.9,5.5-8.8,5.7-14h-8.2C38.3,21.4,36.4,16.5,32.5,13.5z M23,38.5L23,38.5L23,38.5c-7.5,0-13.5-6-13.5-13.5
		c0-7.5,6.1-13.5,13.5-13.5c7.5,0,13.5,6.1,13.5,13.5C36.5,32.5,30.5,38.5,23,38.5z M23,12.3c-7,0-12.7,5.7-12.7,12.7
		c0,7,5.7,12.7,12.7,12.7c7,0,12.7-5.7,12.7-12.7C35.7,18,30,12.3,23,12.3z M23,14.8c1,0,1.8,0.8,1.8,1.8c0,1-0.8,1.8-1.8,1.8
		c-1,0-1.8-0.8-1.8-1.8C21.2,15.6,22,14.8,23,14.8z M15,24.2L15,24.2L15,24.2c-1,0-1.8-0.8-1.8-1.8c0-1,0.8-1.8,1.8-1.8
		c1,0,1.8,0.8,1.8,1.8C16.7,23.4,15.9,24.2,15,24.2z M18,33.7L18,33.7L18,33.7c-1,0-1.8-0.8-1.8-1.8c0-1,0.8-1.8,1.8-1.8
		c1,0,1.8,0.8,1.8,1.8C19.8,32.9,19,33.7,18,33.7z M23,30.3c-2.9,0-5.3-2.4-5.3-5.3v0c0-2.9,2.4-5.3,5.3-5.3s5.3,2.4,5.3,5.3
		C28.4,27.9,26,30.3,23,30.3L23,30.3z M28,33.7L28,33.7L28,33.7c-1,0-1.8-0.8-1.8-1.8c0-1,0.8-1.8,1.8-1.8c1,0,1.8,0.8,1.8,1.8
		C29.8,32.9,29,33.7,28,33.7z M32.8,22.5c0,1-0.8,1.8-1.7,1.8h0v0c-1,0-1.8-0.8-1.8-1.8c0-1,0.8-1.8,1.8-1.8
		C32,20.7,32.8,21.5,32.8,22.5z M38.7,25.4H50c-0.2-7.4-3.1-14.5-8.3-19.9l-8,8C37.1,16.5,38.9,20.9,38.7,25.4z"/>
</g>
</svg>
