<?xml version="1.0" encoding="utf-8"?>
<!-- Generator: Adobe Illustrator 24.1.2, SVG Export Plug-In . SVG Version: 6.00 Build 0)  -->
<svg version="1.1" id="Layer_1" xmlns="http://www.w3.org/2000/svg" xmlns:xlink="http://www.w3.org/1999/xlink" x="0px" y="0px"
	 viewBox="0 0 50 50" style="enable-background:new 0 0 50 50;" xml:space="preserve">
<style type="text/css">
	.st0{clip-path:url(#SVGID_2_);}
	.st1{fill:#FFFFFF;}
</style>
<g id="f4feda68-e9f3-4afc-a13e-c8d38cecba12">
	<g id="a5e0eee7-fc9b-4baa-9454-cab374e6cf7f">
		<g>
			<defs>
				<rect id="SVGID_1_" y="0" width="50" height="50"/>
			</defs>
			<clipPath id="SVGID_2_">
				<use xlink:href="#SVGID_1_"  style="overflow:visible;"/>
			</clipPath>
			<g class="st0">
				<g id="a19cfe95-f8cc-4228-aeab-d35bb5f8fb8d">
					<g id="e80df452-794b-4c26-8e18-0f8f04d13ab6">
						<path id="bf9921d0-9287-49ba-9446-4cc2996b10da" class="st1" d="M39.1,17.1c-0.1-0.3-0.4-0.5-0.8-0.5h-9.9l9.7-15.4
							c0.2-0.4,0.1-0.9-0.3-1.1C37.8,0,37.7,0,37.5,0H24.2c-0.3,0-0.6,0.2-0.7,0.5l-12.5,25c-0.2,0.4,0,0.9,0.4,1.1
							c0.1,0.1,0.2,0.1,0.4,0.1h8.6l-9.3,22.2c-0.2,0.4,0,0.8,0.3,1c0.1,0.1,0.3,0.1,0.4,0.1c0.2,0,0.5-0.1,0.6-0.3L39,18
							C39.2,17.8,39.2,17.4,39.1,17.1z"/>
					</g>
				</g>
			</g>
		</g>
	</g>
</g>
</svg>
