<?xml version="1.0" encoding="utf-8"?>
<!-- Generator: Adobe Illustrator 24.1.2, SVG Export Plug-In . SVG Version: 6.00 Build 0)  -->
<svg version="1.1" id="Layer_1" xmlns="http://www.w3.org/2000/svg" xmlns:xlink="http://www.w3.org/1999/xlink" x="0px" y="0px"
	 viewBox="0 0 50 50" style="enable-background:new 0 0 50 50;" xml:space="preserve">
<style type="text/css">
	.st0{clip-path:url(#SVGID_2_);}
	.st1{fill:#FFFFFF;}
</style>
<g id="e8261f12-c9d4-4c14-bbb8-b409f19b7c8a">
	<g id="a613d06a-3102-4364-87ff-ec55a1c8fa72">
		<g>
			<defs>
				<rect id="SVGID_1_" width="50" height="50"/>
			</defs>
			<clipPath id="SVGID_2_">
				<use xlink:href="#SVGID_1_"  style="overflow:visible;"/>
			</clipPath>
			<g class="st0">
				<g id="a4c2f438-60d2-4a5d-a9b3-1b3d8a6f9b07">
					<path id="b8397db3-9665-4132-ae03-83eef68cc0f2" class="st1" d="M17.2,21.7c0,0.2-0.2,0.4-0.4,0.4c0,0,0,0,0,0h0
						c-0.2,0-0.4-0.2-0.4-0.4c0-0.2,0.2-0.4,0.4-0.4C17,21.3,17.2,21.5,17.2,21.7C17.2,21.7,17.2,21.7,17.2,21.7L17.2,21.7z"/>
					<path id="f445d9bf-6c57-4350-9b81-10c1acc09f12" class="st1" d="M30.8,25.8c-0.7,0-1.2,0.5-1.2,1.2c0,0.7,0.5,1.2,1.2,1.2
						c0.7,0,1.2-0.5,1.2-1.2c0,0,0,0,0,0v0C32,26.3,31.5,25.8,30.8,25.8C30.8,25.8,30.8,25.8,30.8,25.8L30.8,25.8z M30.8,25.8
						c-0.7,0-1.2,0.5-1.2,1.2c0,0.7,0.5,1.2,1.2,1.2c0.7,0,1.2-0.5,1.2-1.2c0,0,0,0,0,0v0C32,26.3,31.5,25.8,30.8,25.8
						C30.8,25.8,30.8,25.8,30.8,25.8L30.8,25.8z M27.6,33c-3.3-1.8-4.6-5.9-2.8-9.2c0.5-0.9,1.1-1.6,1.8-2.2l-5.4-1.2
						c0.1,0.4,0.2,0.9,0.2,1.3c0,2.6-2.1,4.7-4.7,4.7c-0.3,0-0.5,0-0.8-0.1l1.5,5.1c1.7-1.3,4.2-1,5.5,0.7c0.5,0.7,0.8,1.5,0.8,2.4
						v0L27.6,33z M20,34.3c-0.1,0-0.2,0.1-0.2,0.2c0,0.1,0.1,0.2,0.2,0.2c0.1,0,0.2-0.1,0.2-0.2C20.2,34.4,20.1,34.3,20,34.3
						C20,34.3,20,34.3,20,34.3L20,34.3z M30.8,25.8c-0.7,0-1.2,0.5-1.2,1.2c0,0.7,0.5,1.2,1.2,1.2c0.7,0,1.2-0.5,1.2-1.2
						c0,0,0,0,0,0v0C32,26.3,31.5,25.8,30.8,25.8L30.8,25.8z M30.8,25.8c-0.7,0-1.2,0.5-1.2,1.2c0,0.7,0.5,1.2,1.2,1.2
						c0.7,0,1.2-0.5,1.2-1.2c0,0,0,0,0,0v0C32,26.3,31.5,25.8,30.8,25.8L30.8,25.8z M27.6,33c-3.3-1.8-4.6-5.9-2.8-9.2
						c0.5-0.9,1.1-1.6,1.8-2.2l-5.4-1.2c0.1,0.4,0.2,0.9,0.2,1.3c0,2.6-2.1,4.7-4.7,4.7c-0.3,0-0.5,0-0.8-0.1l1.5,5.1
						c1.7-1.3,4.2-1,5.5,0.7c0.5,0.7,0.8,1.5,0.8,2.4v0L27.6,33z M20,34.3c-0.1,0-0.2,0.1-0.2,0.2c0,0.1,0.1,0.2,0.2,0.2
						c0.1,0,0.2-0.1,0.2-0.2C20.2,34.4,20.1,34.3,20,34.3C20,34.3,20,34.3,20,34.3L20,34.3z M20,34.3c-0.1,0-0.2,0.1-0.2,0.2
						c0,0.1,0.1,0.2,0.2,0.2c0.1,0,0.2-0.1,0.2-0.2C20.2,34.4,20.1,34.3,20,34.3C20,34.3,20,34.3,20,34.3L20,34.3z M27.6,33
						c-3.3-1.8-4.6-5.9-2.8-9.2c0.5-0.9,1.1-1.6,1.8-2.2l-5.4-1.2c0.1,0.4,0.2,0.9,0.2,1.3c0,2.6-2.1,4.7-4.7,4.7
						c-0.3,0-0.5,0-0.8-0.1l1.5,5.1c1.7-1.3,4.2-1,5.5,0.7c0.5,0.7,0.8,1.5,0.8,2.4v0L27.6,33z M30.8,25.8c-0.7,0-1.2,0.5-1.2,1.2
						c0,0.7,0.5,1.2,1.2,1.2c0.7,0,1.2-0.5,1.2-1.2c0,0,0,0,0,0v0C32,26.3,31.5,25.8,30.8,25.8L30.8,25.8z M30.8,25.8
						c-0.7,0-1.2,0.5-1.2,1.2c0,0.7,0.5,1.2,1.2,1.2c0.7,0,1.2-0.5,1.2-1.2c0,0,0,0,0,0v0C32,26.3,31.5,25.8,30.8,25.8L30.8,25.8z
						 M27.6,33c-3.3-1.8-4.6-5.9-2.8-9.2c0.5-0.9,1.1-1.6,1.8-2.2l-5.4-1.2c0.1,0.4,0.2,0.9,0.2,1.3c0,2.6-2.1,4.7-4.7,4.7
						c-0.3,0-0.5,0-0.8-0.1l1.5,5.1c1.7-1.3,4.2-1,5.5,0.7c0.5,0.7,0.8,1.5,0.8,2.4v0L27.6,33z M20,34.3c-0.1,0-0.2,0.1-0.2,0.2
						c0,0.1,0.1,0.2,0.2,0.2c0.1,0,0.2-0.1,0.2-0.2C20.2,34.4,20.1,34.3,20,34.3C20,34.3,20,34.3,20,34.3L20,34.3z M20,34.3
						c-0.1,0-0.2,0.1-0.2,0.2c0,0.1,0.1,0.2,0.2,0.2c0.1,0,0.2-0.1,0.2-0.2C20.2,34.4,20.1,34.3,20,34.3C20,34.3,20,34.3,20,34.3
						L20,34.3z M27.6,33c-3.3-1.8-4.6-5.9-2.8-9.2c0.5-0.9,1.1-1.6,1.8-2.2l-5.4-1.2c0.1,0.4,0.2,0.9,0.2,1.3c0,2.6-2.1,4.7-4.7,4.7
						c-0.3,0-0.5,0-0.8-0.1l1.5,5.1c1.7-1.3,4.2-1,5.5,0.7c0.5,0.7,0.8,1.5,0.8,2.4v0L27.6,33z M30.8,25.8c-0.7,0-1.2,0.5-1.2,1.2
						c0,0.7,0.5,1.2,1.2,1.2c0.7,0,1.2-0.5,1.2-1.2c0,0,0,0,0,0v0C32,26.3,31.5,25.8,30.8,25.8L30.8,25.8z M30.1,13.8l-0.6-0.4
						l0.1-0.1h-9.1l0.1,0.1l-0.8,0.6l-5.1,3.5l0.1,0.1c1.3-0.7,2.8-0.7,4.1-0.1L31,20.2c3.8,0.1,6.7,3.3,6.6,7.1
						c-0.1,2.7-1.8,5.1-4.3,6.1l-0.1,0.1l-2.9,1.1l-8,3.2c-0.7,0.5-1.5,0.8-2.3,0.8c-2.2,0-4-1.8-4-4c0,0,0-0.1,0-0.1l-3-9.9
						c-1.4-1.9-1.2-4.5,0.5-6.1l-0.1-0.1L8.1,22l3.5,8.9l5.6,14.4h15.6l5.6-14.4l3.5-8.9v0L30.1,13.8z M32,27
						c-0.3-0.4-0.8-0.5-1.2-0.3c-0.4,0.3-0.5,0.8-0.3,1.2c0.3,0.4,0.8,0.5,1.2,0.3C32.1,27.9,32.2,27.4,32,27L32,27L32,27z
						 M16.8,26.4c-0.3,0-0.5,0-0.8-0.1l1.5,5.1c1.7-1.3,4.2-1,5.5,0.7c0.5,0.7,0.8,1.5,0.8,2.4v0l3.7-1.5c-3.3-1.8-4.6-5.9-2.8-9.2
						c0.5-0.9,1.1-1.6,1.8-2.2l-5.4-1.2c0.1,0.4,0.2,0.9,0.2,1.3C21.4,24.3,19.3,26.4,16.8,26.4L16.8,26.4z M19.7,34.5
						c0,0.1,0.1,0.2,0.2,0.2c0.1,0,0.2-0.1,0.2-0.2c0-0.1-0.1-0.2-0.2-0.2C19.8,34.3,19.7,34.4,19.7,34.5L19.7,34.5z M30.8,25.8
						c-0.7,0-1.2,0.5-1.2,1.2c0,0.7,0.5,1.2,1.2,1.2c0.7,0,1.2-0.5,1.2-1.2c0,0,0,0,0,0v0C32,26.3,31.5,25.8,30.8,25.8L30.8,25.8z
						 M27.6,33c-3.3-1.8-4.6-5.9-2.8-9.2c0.5-0.9,1.1-1.6,1.8-2.2l-5.4-1.2c0.1,0.4,0.2,0.9,0.2,1.3c0,2.6-2.1,4.7-4.7,4.7
						c-0.3,0-0.5,0-0.8-0.1l1.5,5.1c1.7-1.3,4.2-1,5.5,0.7c0.5,0.7,0.8,1.5,0.8,2.4v0L27.6,33z M20,34.3c-0.1,0-0.2,0.1-0.2,0.2
						c0,0.1,0.1,0.2,0.2,0.2c0.1,0,0.2-0.1,0.2-0.2C20.2,34.4,20.1,34.3,20,34.3C20,34.3,20,34.3,20,34.3L20,34.3z M20,34.3
						c-0.1,0-0.2,0.1-0.2,0.2c0,0.1,0.1,0.2,0.2,0.2c0.1,0,0.2-0.1,0.2-0.2C20.2,34.4,20.1,34.3,20,34.3C20,34.3,20,34.3,20,34.3
						L20,34.3z M27.6,33c-3.3-1.8-4.6-5.9-2.8-9.2c0.5-0.9,1.1-1.6,1.8-2.2l-5.4-1.2c0.1,0.4,0.2,0.9,0.2,1.3c0,2.6-2.1,4.7-4.7,4.7
						c-0.3,0-0.5,0-0.8-0.1l1.5,5.1c1.7-1.3,4.2-1,5.5,0.7c0.5,0.7,0.8,1.5,0.8,2.4v0L27.6,33z M30.8,25.8c-0.7,0-1.2,0.5-1.2,1.2
						c0,0.7,0.5,1.2,1.2,1.2c0.7,0,1.2-0.5,1.2-1.2c0,0,0,0,0,0v0C32,26.3,31.5,25.8,30.8,25.8L30.8,25.8z M30.8,25.8
						c-0.7,0-1.2,0.5-1.2,1.2c0,0.7,0.5,1.2,1.2,1.2c0.7,0,1.2-0.5,1.2-1.2c0,0,0,0,0,0v0C32,26.3,31.5,25.8,30.8,25.8L30.8,25.8z
						 M27.6,33c-3.3-1.8-4.6-5.9-2.8-9.2c0.5-0.9,1.1-1.6,1.8-2.2l-5.4-1.2c0.1,0.4,0.2,0.9,0.2,1.3c0,2.6-2.1,4.7-4.7,4.7
						c-0.3,0-0.5,0-0.8-0.1l1.5,5.1c1.7-1.3,4.2-1,5.5,0.7c0.5,0.7,0.8,1.5,0.8,2.4v0L27.6,33z M20,34.3c-0.1,0-0.2,0.1-0.2,0.2
						c0,0.1,0.1,0.2,0.2,0.2c0.1,0,0.2-0.1,0.2-0.2C20.2,34.4,20.1,34.3,20,34.3C20,34.3,20,34.3,20,34.3L20,34.3z M27.6,33
						c-3.3-1.8-4.6-5.9-2.8-9.2c0.5-0.9,1.1-1.6,1.8-2.2l-5.4-1.2c0.1,0.4,0.2,0.9,0.2,1.3c0,2.6-2.1,4.7-4.7,4.7
						c-0.3,0-0.5,0-0.8-0.1l1.5,5.1c1.7-1.3,4.2-1,5.5,0.7c0.5,0.7,0.8,1.5,0.8,2.4v0L27.6,33z M30.8,25.8c-0.7,0-1.2,0.5-1.2,1.2
						c0,0.7,0.5,1.2,1.2,1.2c0.7,0,1.2-0.5,1.2-1.2c0,0,0,0,0,0v0C32,26.3,31.5,25.8,30.8,25.8L30.8,25.8z M30.8,25.8
						c-0.7,0-1.2,0.5-1.2,1.2c0,0.7,0.5,1.2,1.2,1.2c0.7,0,1.2-0.5,1.2-1.2c0,0,0,0,0,0v0C32,26.3,31.5,25.8,30.8,25.8L30.8,25.8z
						 M27.6,33c-3.3-1.8-4.6-5.9-2.8-9.2c0.5-0.9,1.1-1.6,1.8-2.2l-5.4-1.2c0.1,0.4,0.2,0.9,0.2,1.3c0,2.6-2.1,4.7-4.7,4.7
						c-0.3,0-0.5,0-0.8-0.1l1.5,5.1c1.7-1.3,4.2-1,5.5,0.7c0.5,0.7,0.8,1.5,0.8,2.4v0L27.6,33z M30.8,25.8c-0.7,0-1.2,0.5-1.2,1.2
						c0,0.7,0.5,1.2,1.2,1.2c0.7,0,1.2-0.5,1.2-1.2c0,0,0,0,0,0v0C32,26.3,31.5,25.8,30.8,25.8L30.8,25.8z M30.8,25.8
						c-0.7,0-1.2,0.5-1.2,1.2c0,0.7,0.5,1.2,1.2,1.2c0.7,0,1.2-0.5,1.2-1.2c0,0,0,0,0,0v0C32,26.3,31.5,25.8,30.8,25.8L30.8,25.8z
						 M20,34.3c-0.1,0-0.2,0.1-0.2,0.2c0,0.1,0.1,0.2,0.2,0.2c0.1,0,0.2-0.1,0.2-0.2C20.2,34.4,20.1,34.3,20,34.3L20,34.3z M27.6,33
						c-3.3-1.8-4.6-5.9-2.8-9.2c0.5-0.9,1.1-1.6,1.8-2.2l-5.4-1.2c0.1,0.4,0.2,0.9,0.2,1.3c0,2.6-2.1,4.7-4.7,4.7
						c-0.3,0-0.5,0-0.8-0.1l1.5,5.1c1.7-1.3,4.2-1,5.5,0.7c0.5,0.7,0.8,1.5,0.8,2.4v0L27.6,33z M30.8,25.8c-0.7,0-1.2,0.5-1.2,1.2
						c0,0.7,0.5,1.2,1.2,1.2c0.7,0,1.2-0.5,1.2-1.2c0,0,0,0,0,0v0C32,26.3,31.5,25.8,30.8,25.8L30.8,25.8z"/>
					<path id="fc2d8e81-4a65-4373-857a-df5244600e04" class="st1" d="M30,33.8l-6.5,2.7c0.2-0.3,0.3-0.6,0.4-1v0l4.8-2
						C29.1,33.6,29.5,33.7,30,33.8z"/>
					<path id="a09090f5-c3d4-4e99-a738-f146bc4515e9" class="st1" d="M28.8,20.5c-0.4,0.1-0.8,0.3-1.2,0.5h0l-6.6-1.5
						c-0.2-0.3-0.4-0.7-0.6-0.9L28.8,20.5z"/>
					<path id="e6e3c2cd-e1cd-4ceb-8671-752880406def" class="st1" d="M16.9,32c-0.2,0.3-0.4,0.6-0.5,0.9l-2.2-7.3
						c0.3,0.2,0.6,0.4,1,0.5L16.9,32z"/>
					<path id="bb20896f-34d5-400b-b9d9-11a4edc22abe" class="st1" d="M30.8,20.9c-3.3,0-6.1,2.7-6.1,6s2.7,6.1,6,6.1
						c3.3,0,6.1-2.7,6.1-6v0C36.9,23.6,34.2,20.9,30.8,20.9C30.8,20.9,30.8,20.9,30.8,20.9z M30.8,28.9c-1.1,0-2-0.9-2-2s0.9-2,2-2
						c1.1,0,2,0.9,2,2C32.8,28.1,31.9,28.9,30.8,28.9C30.8,28.9,30.8,28.9,30.8,28.9z"/>
					<path id="adc22a4a-a4d2-49a4-8c13-8acd4e1b3721" class="st1" d="M16.8,17.8c-2.2,0-3.9,1.7-3.9,3.9c0,2.2,1.7,3.9,3.9,3.9
						s3.9-1.7,3.9-3.9c0,0,0,0,0,0v0C20.7,19.6,18.9,17.8,16.8,17.8z M16.8,22.9c-0.7,0-1.2-0.5-1.2-1.2c0-0.7,0.5-1.2,1.2-1.2
						S18,21,18,21.7c0,0,0,0,0,0v0C18,22.4,17.4,22.9,16.8,22.9C16.8,22.9,16.8,22.9,16.8,22.9L16.8,22.9z"/>
					<path id="f067d51a-130d-424b-ac46-73182f49e2a7" class="st1" d="M20,31.3c-1.8,0-3.2,1.4-3.2,3.2c0,1.8,1.4,3.2,3.2,3.2
						c1.8,0,3.2-1.4,3.2-3.2v0C23.1,32.8,21.7,31.3,20,31.3z M20,35.5c-0.5,0-1-0.4-1-1c0-0.5,0.4-1,1-1c0.5,0,1,0.4,1,1v0
						C20.9,35.1,20.5,35.5,20,35.5L20,35.5z"/>
					<path id="fa150725-c0dc-4e26-9c55-887da4270a36" class="st1" d="M14.9,4.7v5.6h20.2V4.7H14.9z M16,9.9h-0.6V5.3H16V9.9z
						 M17.1,9.9h-0.6V5.3h0.6V9.9z M18.2,9.9h-0.6V5.3h0.6V9.9z M19.3,9.9h-0.6V5.3h0.6V9.9z M20.4,9.9h-0.6V5.3h0.6V9.9z M21.5,9.9
						h-0.6V5.3h0.6V9.9z M22.6,9.9H22V5.3h0.6V9.9z M23.7,9.9h-0.6V5.3h0.6V9.9z M24.8,9.9h-0.6V5.3h0.6V9.9z M25.9,9.9h-0.6V5.3
						h0.6V9.9z M27,9.9h-0.6V5.3H27V9.9z M28.1,9.9h-0.6V5.3h0.6V9.9z M29.2,9.9h-0.6V5.3h0.6V9.9z M30.3,9.9h-0.6V5.3h0.6V9.9z
						 M31.4,9.9h-0.6V5.3h0.6V9.9z M32.5,9.9h-0.6V5.3h0.6V9.9z M33.5,9.9h-0.6V5.3h0.6V9.9z M34.6,9.9H34V5.3h0.6V9.9z"/>
					<rect id="a0d1c400-0427-4751-b287-53a2509e0b82" x="19.8" y="10.9" class="st1" width="10.4" height="1.5"/>
					<path id="a7452024-c118-4af1-a936-21977183281f" class="st1" d="M19.4,13.2l-0.2,0.1L7.8,21.2l-4.7,3.3l-0.6,0.4l-2-2.9
						c-1-1.4-0.6-3.4,0.8-4.3c0,0,0,0,0,0l0,0l11.8-8.1c0.3-0.2,0.6-0.4,1-0.5v2H18L19.4,13.2z"/>
					<path id="a2fd0e2f-f82a-4660-9610-f615a7b8cdaa" class="st1" d="M10.8,30.9H7.4c-0.9,0-1.3-1-1.3-1l-2.6-4.7l3.9-2.7L10.8,30.9
						z"/>
					<path id="aaee1bdd-c773-49fc-ad2f-9521ddd265ff" class="st1" d="M49.4,22l-2,2.9l-0.6-0.4l-4.7-3.3l-11.4-7.9l-0.2-0.1l1.4-2.1
						h3.9v-2c0.4,0.1,0.7,0.2,1,0.5l11.8,8.1C50.1,18.6,50.4,20.6,49.4,22L49.4,22z"/>
					<path id="b803e924-cc6e-4fb3-802b-f162cfc18bf4" class="st1" d="M46.5,25.2l-2.6,4.7c0,0-0.3,1-1.3,1h-3.4l3.3-8.5L46.5,25.2z"
						/>
				</g>
			</g>
		</g>
	</g>
</g>
</svg>
