<?xml version="1.0" encoding="utf-8"?>
<!-- Generator: Adobe Illustrator 24.1.2, SVG Export Plug-In . SVG Version: 6.00 Build 0)  -->
<svg version="1.1" id="Layer_1" xmlns="http://www.w3.org/2000/svg" xmlns:xlink="http://www.w3.org/1999/xlink" x="0px" y="0px"
	 viewBox="0 0 50.2 50.2" style="enable-background:new 0 0 50.2 50.2;" xml:space="preserve">
<style type="text/css">
	.st0{fill:#000033;}
</style>
<g id="f1423f95-085f-4a29-bc16-1c756b84033e">
	<g id="e73692e2-97d0-4988-861d-66baf98db35b">
		<g>
			<g>
				<g id="ae57163e-f031-40b0-9515-1a5e7344a3b0">
					<g>
						<g>
							<g id="a6a97390-6537-4a9e-b06b-2920008c1d93">
								<g id="bae1bd66-7167-4262-8d06-05296a621dd3">
									<path id="bdf24654-c034-48d9-9908-b34084bb8374" class="st0" d="M1.1,49.1L1.1,49.1c0-0.1,0.1-0.2,0.1-0.2
										C4,43.1,6.7,37.3,9.5,31.5c0.1-0.2,0.2-0.2,0.4-0.2c3.6,0,7.1,0,10.7,0h0.3c0-0.1-0.1-0.2-0.1-0.2
										c-2.1-4.2-4.1-8.5-6.2-12.7c-0.3-0.5-0.5-1-0.7-1.5c-0.8-2.2-0.9-4.6-0.3-6.8c1.2-4.7,5-8.2,9.7-8.9
										C23.7,1,24.1,1,24.5,0.9h1.4c0.1,0,0.1,0,0.2,0c2.5,0.2,4.9,1.1,6.8,2.8c3.1,2.6,4.7,6.6,4.2,10.7c-0.1,1.2-0.4,2.3-1,3.3
										c-2.2,4.4-4.3,8.9-6.5,13.3c0,0.1-0.1,0.2-0.1,0.3h11c0.1,0,0.2,0.1,0.3,0.2c2.8,5.8,5.5,11.6,8.3,17.4
										c0,0.1,0,0.1,0.1,0.2L1.1,49.1L1.1,49.1z M25.2,40.3C25.2,40.3,25.2,40.4,25.2,40.3c1.7,1.9,3.9,3.2,6.3,3.7
										c2.9,0.6,6,0.7,8.9,0.1c0.9-0.1,1.7-0.4,2.4-0.9c0.5-0.3,0.9-0.7,1-1.3c0-0.1,0-0.2,0-0.4c-0.6-1.3-1.2-2.5-1.8-3.8
										c0-0.1-0.2-0.2-0.3-0.2c-1.3,0-2.6,0-3.9-0.1c-1.1-0.1-2.2-0.3-3.2-0.7c-1.4-0.5-2.5-1.8-2.8-3.3c0-0.2-0.1-0.4-0.1-0.6
										h-0.2c-0.9,0-1.7,0-2.6,0c-0.2,0-0.3,0.1-0.4,0.2C27.5,35.6,26.3,37.9,25.2,40.3L25.2,40.3z M18.4,47.4h28.2l-2.2-4.5
										c0,0,0,0.1-0.1,0.1c-0.4,0.5-0.8,0.9-1.4,1.2c-0.8,0.4-1.7,0.7-2.6,0.8c-2.6,0.5-5.3,0.5-8,0.1c-1.6-0.3-3.2-0.8-4.7-1.6
										c-1.4-0.9-2.7-2-3.8-3.3c-0.8-0.9-1.6-1.8-2.4-2.7c-0.5-0.6-1.2-1.1-2-1.4c-0.4-0.1-0.7-0.2-1.1-0.3L18.4,47.4z M17.5,47.4
										V35.7c0,0-0.1,0-0.1,0c-0.3,0-0.5,0-0.8,0c-1.4,0.1-2.8,0.5-4,1.2c-0.6,0.4-1.2,0.9-1.8,1.3c-0.9,0.7-1.9,1.1-3,1.2
										c-0.1,0-0.3,0.1-0.3,0.2c-1.2,2.5-2.4,5.1-3.6,7.6c0,0.1-0.1,0.1-0.1,0.2L17.5,47.4z M25.2,17.2c2.4,0,4.3-1.9,4.3-4.3
										c0-2.4-1.9-4.3-4.3-4.3c0,0,0,0,0,0h0c-2.4,0-4.3,1.9-4.3,4.3v0C20.9,15.3,22.8,17.2,25.2,17.2L25.2,17.2z M41.5,36.9
										c0-0.1-0.1-0.2-0.1-0.2c-0.5-1.1-1.1-2.3-1.6-3.4c0-0.1-0.2-0.2-0.3-0.2c-2.2,0-4.4,0-6.6,0h-0.2c0,0,0,0,0,0.1
										c0,0,0,0.1,0,0.1c0.1,0.7,0.3,1.3,0.8,1.8c0.6,0.7,1.4,1.1,2.2,1.3c1,0.3,2,0.4,3,0.5C39.6,36.8,40.6,36.8,41.5,36.9
										L41.5,36.9z M17.5,33c-0.1,0-0.1,0-0.2,0c-2.2,0-4.3,0-6.5,0c-0.1,0-0.2,0.1-0.3,0.2c-0.8,1.7-1.6,3.4-2.4,5.1
										c0,0.1,0,0.1-0.1,0.2c0.4,0,0.8-0.2,1.1-0.3c0.6-0.3,1.3-0.7,1.8-1.2c1.6-1.3,3.6-2,5.6-2.1c0.3,0,0.6,0,0.9,0L17.5,33z
										 M25.1,40.2L25.1,40.2c0-0.1,0-0.1,0-0.1c-1.1-2.3-2.2-4.6-3.3-6.9c0-0.1-0.1-0.2-0.3-0.2c-1,0-1.9,0-2.9,0
										c-0.1,0-0.1,0-0.2,0c0,0,0,0,0,0.1c0,0.6,0,1.1,0,1.7c0,0,0.1,0.1,0.1,0.1c1.2,0.2,2.3,0.7,3.2,1.6
										c0.8,0.8,1.6,1.7,2.3,2.6C24.4,39.4,24.8,39.8,25.1,40.2L25.1,40.2z"/>
								</g>
							</g>
						</g>
					</g>
				</g>
			</g>
		</g>
	</g>
</g>
</svg>
