<?xml version="1.0" encoding="utf-8"?>
<!-- Generator: Adobe Illustrator 24.1.2, SVG Export Plug-In . SVG Version: 6.00 Build 0)  -->
<svg version="1.1" id="Layer_1" xmlns="http://www.w3.org/2000/svg" xmlns:xlink="http://www.w3.org/1999/xlink" x="0px" y="0px"
	 viewBox="0 0 50 50" style="enable-background:new 0 0 50 50;" xml:space="preserve">
<style type="text/css">
	.st0{clip-path:url(#SVGID_2_);}
	.st1{fill:#FFFFFF;}
</style>
<g id="a8ae79ce-d10c-48a7-b836-81c2e2478912">
	<g id="a334fb30-2ff3-43e9-8447-6fca3d820f69">
		<g>
			<defs>
				<rect id="SVGID_1_" width="50" height="50"/>
			</defs>
			<clipPath id="SVGID_2_">
				<use xlink:href="#SVGID_1_"  style="overflow:visible;"/>
			</clipPath>
			<g class="st0">
				<g id="eebc84b4-4bd5-4ef9-93ba-248df83f02ca">
					<path id="aefd6811-ebfe-4b4a-917d-d7ec729bb2b1" class="st1" d="M41.6,23.4l-0.1-0.1l0,0l-14-17l-0.4-0.5
						c-0.3-0.2-0.7-0.4-1-0.4h-4.8V4.3h-7.5v1.2h-4C8.8,5.5,8,6.2,8,7.1c0,0,0,0,0,0v41.3C8,49.3,8.8,50,9.7,50h30.7
						c0.9,0,1.6-0.7,1.6-1.6v-24C42,24,41.8,23.7,41.6,23.4z M36.4,44.8H13.1V27.7h23.4V44.8z M28.6,23.1l-0.9-11.6l9,11.3l0.5,0.6
						L28.6,23.1z"/>
					<path id="eeef2fc6-dfcf-453e-b567-cc2949886d98" class="st1" d="M27.5,6.3l-0.4-0.5C27.3,6,27.4,6.1,27.5,6.3z"/>
					<rect id="bdda6bc2-7bf6-48d4-af98-0049ab527a59" x="13.1" class="st1" width="8.8" height="3.5"/>
					<path id="bf484389-f08c-4023-974e-90421ddcafb8" class="st1" d="M28.4,36.2l-0.1-0.1L25,30.2l-3.5,6.2C21.2,37,21,37.6,21,38.3
						c0,2.2,1.8,4,4,3.9s4-1.8,3.9-4C29,37.5,28.7,36.8,28.4,36.2L28.4,36.2z M24.2,41.1c-0.3,0.4-0.8,0-1.1-0.1
						c-0.4-0.2-1.1-0.8-1.1-1.4c0.1-0.8,0.9-0.2,1.3,0.1C23.9,40.2,24.3,40.9,24.2,41.1L24.2,41.1z"/>
				</g>
			</g>
		</g>
	</g>
</g>
</svg>
