<?xml version="1.0" encoding="utf-8"?>
<!-- Generator: Adobe Illustrator 24.1.2, SVG Export Plug-In . SVG Version: 6.00 Build 0)  -->
<svg version="1.1" id="Layer_1" xmlns="http://www.w3.org/2000/svg" xmlns:xlink="http://www.w3.org/1999/xlink" x="0px" y="0px"
	 viewBox="0 0 50 50" style="enable-background:new 0 0 50 50;" xml:space="preserve">
<style type="text/css">
	.st0{clip-path:url(#SVGID_2_);}
	.st1{fill:#FFFFFF;}
</style>
<g>
	<defs>
		<rect id="SVGID_1_" width="50" height="50"/>
	</defs>
	<clipPath id="SVGID_2_">
		<use xlink:href="#SVGID_1_"  style="overflow:visible;"/>
	</clipPath>
	<g class="st0">
		<path class="st1" d="M48.6,1.4c-1.9-1.9-4.9-1.9-6.8,0s-1.9,4.9,0,6.8c1.9,1.9,4.9,1.9,6.8,0C50.5,6.4,50.5,3.3,48.6,1.4z
			 M47.1,6.7c-1.1,1.1-2.8,1.1-3.8,0c-1.1-1.1-1.1-2.8,0-3.8c1.1-1.1,2.8-1.1,3.8,0C48.1,4,48.1,5.7,47.1,6.7z"/>
		<path class="st1" d="M34.9,5.8l-9.8,9.8l1,1l-1.4,1.4l-0.2-0.2c-0.3-0.3-0.8-0.3-1.1,0l-0.2,0.2c-0.3,0.3-0.3,0.8,0,1.1l0.2,0.2
			l-1,1L22.2,20c-0.3-0.3-0.8-0.3-1.1,0l-0.2,0.2c-0.3,0.3-0.3,0.8,0,1.1l0.2,0.2l-1,1l-0.2-0.2c-0.3-0.3-0.8-0.3-1.1,0l-0.2,0.2
			c-0.3,0.3-0.3,0.8,0,1.1l0.2,0.2l-13,13l1.5,1.5c-1.9-0.4-4,0.1-5.5,1.6c-2.3,2.3-2.3,6,0,8.3c2.3,2.3,6,2.3,8.3,0
			c1.5-1.5,2-3.6,1.6-5.5l1.5,1.5l13-13l0.2,0.2c0.3,0.3,0.8,0.3,1.1,0l0.2-0.2c0.3-0.3,0.3-0.8,0-1.1L27.4,30l1-1l0.2,0.2
			c0.3,0.3,0.8,0.3,1.1,0l0.2-0.2c0.3-0.3,0.3-0.8,0-1.1l-0.2-0.2l1-1l0.2,0.2c0.3,0.3,0.8,0.3,1.1,0l0.2-0.2c0.3-0.3,0.3-0.8,0-1.1
			l-0.2-0.2l1.4-1.4l1,1l9.8-9.8c1.2-1.2,1.2-3.2,0-4.5l-2.4-2.4l-2.4-2.4C38.1,4.6,36.1,4.6,34.9,5.8z M8.2,46.4
			c-1.3,1.3-3.4,1.3-4.7,0c-1.3-1.3-1.3-3.4,0-4.7s3.4-1.3,4.7,0C9.5,43.1,9.5,45.1,8.2,46.4z M13.1,41.7l-4.8-4.8L20,25.2l4.8,4.8
			L13.1,41.7z M26.1,28.7l-4.8-4.8l1-1l4.8,4.8L26.1,28.7z M28.5,26.3l-4.8-4.8l1-1l4.8,4.8L28.5,26.3z M26,19.2l0.7-0.7l4.8,4.8
			L30.8,24L26,19.2z"/>
	</g>
</g>
</svg>
